Coordinates
version=1
nRows=14
nColumns=24
inDegrees=yes

Units are S.I. units (second, meters, Newtons, ...)
Angles are in degrees.

endheader
time	pelvis_tilt	pelvis_list	pelvis_rotation	pelvis_tx	pelvis_ty	pelvis_tz	hip_flexion_r	hip_adduction_r	hip_rotation_r	knee_angle_r	ankle_angle_r	subtalar_angle_r	mtp_angle_r	hip_flexion_l	hip_adduction_l	hip_rotation_l	knee_angle_l	ankle_angle_l	subtalar_angle_l	mtp_angle_l	lumbar_extension	lumbar_bending	lumbar_rotation
      0.62600000	     -1.85911257	      5.67460262	      4.28882705	     -0.80039650	      0.99575237	      0.26722177	     25.33829091	     -7.22506825	    -11.40231209	      1.63351037	      2.99763891	     -4.20211802	     -0.68482492	    -12.71878055	      7.05815076	     -2.68936398	     -5.60806225	      9.58096681	     -7.21323581	     -0.23774443	    -11.53470110	     -6.35339702	     -3.23843802
      0.63016667	     -1.49227661	      5.50983680	      4.33274641	     -0.79432169	      0.99572271	      0.26730955	     24.97612658	     -7.02086204	    -11.36602428	      1.03748164	      2.86188101	     -4.68559247	     -1.15194348	    -13.34733140	      6.77164657	     -2.68000091	     -5.86011925	      9.68606777	     -7.04026658	     -0.53262044	    -11.90297017	     -6.04779496	     -3.44273901
      0.63433333	     -1.10661806	      5.38887997	      4.38592888	     -0.78834571	      0.99572800	      0.26740304	     24.60224480	     -6.86581694	    -11.35055162	      0.40796768	      2.68322823	     -5.03600467	     -1.52073833	    -13.96921352	      6.52605227	     -2.64238711	     -6.15542178	      9.75164834	     -6.88707113	     -0.77236606	    -12.31804112	     -5.80741396	     -3.54586205
      0.63850000	     -0.93584047	      5.33628828	      4.45723865	     -0.78237143	      0.99541550	      0.26752423	     24.48032464	     -6.79457385	    -11.28882852	     -0.28285282	      2.47824306	     -5.36290153	     -1.63147903	    -14.33290704	      6.36713864	     -2.54217774	     -6.51758515	      9.81209370	     -6.77157196	     -0.84396350	    -12.48661006	     -5.68556948	     -3.63865480
      0.64266667	     -0.56079065	      5.16603521	      4.49462197	     -0.77622551	      0.99546527	      0.26775896	     24.05020119	     -6.55916891	    -11.21549794	     -0.81374918	      2.11646715	     -5.79122507	     -1.78759296	    -14.90634154	      6.05547681	     -2.60258925	     -6.87888362	      9.78716001	     -6.55758947	     -0.94902113	    -12.86373170	     -5.38820180	     -3.81831161
      0.64683333	     -0.15588044	      5.04632503	      4.32437414	     -0.77018396	      0.99545182	      0.26787153	     23.68696638	     -6.33648135	    -11.02346420	     -1.45913419	      1.77662292	     -5.95927079	     -1.88298571	    -15.54255488	      5.89494799	     -2.70472966	     -7.18208551	      9.76873389	     -6.59220254	     -1.02109030	    -13.26188193	     -5.13903657	     -3.67428907
      0.65100000	     -0.02643155	      4.99554011	      4.42995609	     -0.76423637	      0.99518940	      0.26808111	     23.54492428	     -6.26210642	    -10.93307102	     -2.04745330	      1.33631324	     -6.32749845	     -1.91338365	    -15.77553798	      5.71865613	     -2.58520585	     -7.69678406	      9.78452581	     -6.47938407	     -1.03680593	    -13.39559634	     -5.02266712	     -3.83702121
      0.65516667	      0.21605392	      4.85186036	      4.47473067	     -0.75808577	      0.99513630	      0.26844665	     23.21739211	     -6.04639449	    -10.80307590	     -2.50219580	      0.78951694	     -6.73957812	     -1.93292310	    -16.11904096	      5.43356158	     -2.66040116	     -8.23135176	      9.74375998	     -6.28434718	     -1.04318035	    -13.61276332	     -4.77439335	     -4.03265293
      0.65933333	      0.35735673	      4.73828669	      4.54432670	     -0.75194863	      0.99498079	      0.26879459	     22.99361818	     -5.87479341	    -10.66354173	     -2.94845766	      0.19020805	     -7.18306219	     -1.92177423	    -16.32598729	      5.18630202	     -2.65007458	     -8.81568967	      9.67000621	     -6.16304267	     -1.02079324	    -13.72610706	     -4.58621858	     -4.13484284
      0.66350000	      0.49069727	      4.61181675	      4.57997254	     -0.74573697	      0.99483952	      0.26921368	     22.76912123	     -5.67526354	    -10.51962450	     -3.35979876	     -0.51002376	     -7.64144433	     -1.89412456	    -16.51481616	      4.93142247	     -2.68417714	     -9.42135421	      9.59217036	     -6.00347794	     -0.98016463	    -13.80814715	     -4.38780604	     -4.22467359
      0.66766667	      0.62668258	      4.46493492	      4.58078459	     -0.73948828	      0.99474181	      0.26976149	     22.52259530	     -5.43287411	    -10.31702470	     -3.71496017	     -1.26170738	     -8.12760393	     -1.84388939	    -16.67134372	      4.65357084	     -2.80396506	    -10.08671499	      9.46667958	     -5.83168045	     -0.91109166	    -13.89195291	     -4.17665115	     -4.29228963
      0.67183333	      0.75327889	      4.29458533	      4.55357780	     -0.73318738	      0.99466788	      0.27039062	     22.27205785	     -5.15247541	    -10.08392522	     -4.03013574	     -2.06192185	     -8.64786554	     -1.76988717	    -16.79461961	      4.35314188	     -2.98600582	    -10.79498526	      9.32044914	     -5.62451959	     -0.80564592	    -13.95254435	     -3.95522168	     -4.31368161
      0.67600000	      0.92322428	      4.11177003	      4.41042506	     -0.72687796	      0.99464640	      0.27133010	     21.99100231	     -4.80313300	     -9.72400637	     -4.33021898	     -2.90785162	     -9.20046390	     -1.60082048	    -16.94382979	      4.04736080	     -3.34487349	    -11.54038222	      9.17745564	     -5.28351585	     -0.55775459	    -14.06815196	     -3.75689495	     -4.25693328
      0.68016667	      0.94703159	      3.93310024	      4.41835791	     -0.72054658	      0.99456074	      0.27185714	     21.83574941	     -4.54782031	     -9.57123264	     -4.62446779	     -3.74900630	     -9.70147604	     -1.51696016	    -16.89663191	      3.74828224	     -3.43911885	    -12.35184162	      8.91697157	     -5.23755838	     -0.41262306	    -14.00081326	     -3.52038420	     -4.21185132
